<svg width="24" height="24" viewBox="0 0 24 24" fill="none" xmlns="http://www.w3.org/2000/svg">
<g clip-path="url(#clip0_75_26727)">
<path d="M16.2684 -2.69786e-05H16.6414C17.2961 0.273454 17.1386 0.870139 17.1635 1.40881C17.5944 1.40881 18.0088 1.40881 18.4148 1.40881C18.6469 1.40881 18.8872 1.42539 19.111 1.4834C20.3126 1.77345 21.0916 2.7845 21.0916 4.05246C21.0916 6.98616 21.0916 9.92815 21.0916 12.8619C21.0916 13.0193 21.1331 13.1105 21.274 13.2016C22.4756 13.9723 23.3043 15.0331 23.727 16.4005C23.8513 16.7983 23.9093 17.221 24.0005 17.627V18.6547C23.9839 18.7044 23.9673 18.7541 23.959 18.8121C23.5944 21.2403 22.2519 22.8729 19.948 23.7016C19.5336 23.8508 19.0861 23.9005 18.6552 24H17.6275C17.5778 23.9834 17.5281 23.9668 17.4701 23.9585C15.2491 23.6436 13.6828 22.4585 12.7463 20.4281C12.7049 20.337 12.6635 20.2458 12.622 20.1547H12.3237C8.94246 20.1547 5.56125 20.1547 2.18003 20.1547C1.19385 20.1547 0.389978 19.5911 0.0999223 18.7044C0.0584858 18.5801 0.0253367 18.4475 -0.0078125 18.3232V3.65467C-0.0078125 3.65467 0.0253367 3.61323 0.0253367 3.59666C0.166221 2.48616 1.20213 1.3508 2.73528 1.40053C3.13307 1.4171 3.52257 1.40053 3.93694 1.40053C3.9618 0.861851 3.79606 0.273454 4.45904 -0.00831427H4.83197C5.49495 0.265166 5.32092 0.878426 5.35407 1.38395H7.88169C7.88169 1.11047 7.86512 0.845277 7.88169 0.580083C7.90655 0.281741 8.1386 0.124282 8.38722 -0.0166016H8.76014C9.42313 0.256879 9.24909 0.870139 9.28224 1.37566H11.8016C11.8264 0.845277 11.6607 0.256879 12.3237 -0.0166016H12.6966C13.3596 0.256879 13.1856 0.870139 13.2187 1.37566H15.7463C15.7463 0.845277 15.6054 0.256879 16.2601 -0.0166016L16.2684 -2.69786e-05ZM12.2988 18.7458C12.1662 16.6989 12.8126 14.9834 14.3624 13.674C15.9121 12.3646 17.7021 12.0083 19.6745 12.4723V7.51655H1.40931V7.79003C1.40931 11.1547 1.40931 14.5276 1.40931 17.8922C1.40931 18.5055 1.66622 18.7541 2.27948 18.7541C5.5281 18.7541 8.77672 18.7541 12.0253 18.7541H12.2988V18.7458ZM22.5916 18.1409C22.5916 15.6878 20.5944 13.6823 18.1414 13.6823C15.6966 13.6823 13.6994 15.6712 13.6911 18.116C13.6911 20.5773 15.68 22.5828 18.1331 22.5828C20.5944 22.5828 22.5916 20.5856 22.5999 18.1326L22.5916 18.1409ZM3.93694 2.80937C3.48114 2.80937 3.05849 2.80937 2.63583 2.80937C1.90655 2.80937 1.40931 3.3066 1.40931 4.0276C1.40931 4.64914 1.40931 5.27898 1.40931 5.90053C1.40931 5.95854 1.4176 6.01655 1.42589 6.06627H19.6828C19.6828 5.33699 19.6911 4.62428 19.6828 3.91986C19.6745 3.41434 19.3182 2.92539 18.8126 2.86738C18.274 2.80108 17.7187 2.8508 17.1552 2.8508C17.1552 3.0497 17.1552 3.26517 17.1552 3.47235C17.1552 3.90329 16.8485 4.2182 16.4425 4.20992C16.053 4.20992 15.7546 3.895 15.7463 3.48064C15.7463 3.26517 15.7463 3.0497 15.7463 2.81765H13.2187C13.2187 3.03312 13.2187 3.23202 13.2187 3.4392C13.2187 3.895 12.9287 4.20992 12.5143 4.20992C12.1082 4.20992 11.8099 3.895 11.8099 3.4392C11.8099 3.23202 11.8099 3.02483 11.8099 2.82594H9.28224C9.28224 3.05798 9.28224 3.26517 9.28224 3.48064C9.28224 3.90329 8.9839 4.20992 8.58611 4.2182C8.18832 4.2182 7.88169 3.91157 7.8734 3.48064C7.8734 3.26517 7.8734 3.0497 7.8734 2.83423H5.34578C5.34578 3.06627 5.34578 3.29003 5.34578 3.5055C5.33749 3.91986 5.03086 4.22649 4.64136 4.22649C4.25186 4.22649 3.95351 3.91157 3.94523 3.49721C3.94523 3.28174 3.94523 3.06627 3.94523 2.82594L3.93694 2.80937ZM4.88998 13.8232C5.27948 13.8066 5.58611 13.4917 5.57782 13.1105C5.57782 12.7375 5.27948 12.4309 4.88998 12.4226C4.49219 12.4143 4.0944 12.4143 3.69661 12.4226C3.29882 12.4309 3.00047 12.7458 3.00047 13.127C3.00047 13.5083 3.29882 13.8149 3.69661 13.8315C3.88722 13.8315 4.08611 13.8315 4.27672 13.8315C4.47561 13.8315 4.6828 13.8315 4.88169 13.8315L4.88998 13.8232ZM7.8734 12.4226C7.47561 12.4309 7.16898 12.7375 7.16898 13.1188C7.16898 13.5 7.46733 13.8149 7.86512 13.8232C8.26291 13.8315 8.6607 13.8315 9.05849 13.8232C9.45628 13.8149 9.75462 13.5 9.74633 13.1188C9.74633 12.7375 9.4397 12.4392 9.04191 12.4226C8.8513 12.4226 8.66898 12.4226 8.47838 12.4226C8.27948 12.4226 8.0723 12.4226 7.8734 12.4226ZM13.1938 13.8232C13.6082 13.8149 13.9148 13.5165 13.9231 13.127C13.9231 12.7375 13.6165 12.4226 13.2104 12.4226C12.8292 12.4226 12.448 12.4226 12.0668 12.4226C11.6524 12.4226 11.3458 12.7375 11.3541 13.127C11.3541 13.5083 11.6607 13.8066 12.0585 13.8232C12.2491 13.8232 12.4314 13.8232 12.622 13.8232C12.8126 13.8232 13.0115 13.8232 13.2021 13.8232H13.1938ZM7.83197 9.26517C7.46733 9.29003 7.18556 9.5718 7.16898 9.92815C7.15241 10.2928 7.4176 10.6243 7.79882 10.6491C8.23804 10.674 8.67727 10.674 9.10821 10.6491C9.48943 10.6326 9.75462 10.3094 9.74633 9.94472C9.73804 9.58008 9.45628 9.28174 9.07506 9.26517C8.87617 9.25688 8.66898 9.26517 8.47009 9.26517C8.26291 9.26517 8.04744 9.25688 7.84025 9.26517H7.83197ZM13.285 10.6491C13.6662 10.616 13.9314 10.3011 13.9148 9.93644C13.8983 9.5718 13.6165 9.27345 13.2353 9.26517C12.8292 9.24859 12.4231 9.24859 12.0171 9.26517C11.6358 9.27345 11.3541 9.5718 11.3375 9.93644C11.3209 10.3011 11.5944 10.616 11.9673 10.6491C12.1828 10.6657 12.4066 10.6491 12.622 10.6491C12.8375 10.6491 13.0612 10.6657 13.2767 10.6491H13.285ZM16.1938 9.26517C15.8126 9.28174 15.5309 9.5718 15.5143 9.93644C15.506 10.3011 15.7712 10.6243 16.1441 10.6491C16.5833 10.674 17.0226 10.674 17.4535 10.6491C17.8347 10.6243 18.0999 10.3011 18.0833 9.93644C18.0668 9.5718 17.785 9.28174 17.4038 9.26517C17.2049 9.25688 16.9977 9.26517 16.7905 9.26517C16.5916 9.26517 16.3845 9.26517 16.1856 9.26517H16.1938ZM4.28501 16.9806C4.50048 16.9806 4.72423 16.9972 4.9397 16.9806C5.32092 16.9475 5.58611 16.6326 5.57782 16.2679C5.56954 15.9033 5.27948 15.6049 4.89827 15.5967C4.49219 15.5801 4.08611 15.5801 3.68003 15.5967C3.29882 15.6049 3.00876 15.9033 3.00047 16.2679C2.9839 16.6409 3.26567 16.9558 3.65517 16.9889C3.86235 17.0055 4.07782 16.9889 4.28501 16.9889V16.9806ZM7.84854 15.5884C7.46733 15.6049 7.18556 15.895 7.16898 16.2596C7.15241 16.6243 7.42589 16.9558 7.79882 16.9723C8.23804 16.9972 8.67727 16.9972 9.10821 16.9723C9.48943 16.9475 9.75462 16.6243 9.73804 16.2596C9.72976 15.895 9.4397 15.6049 9.05849 15.5884C8.85959 15.5801 8.65241 15.5884 8.44523 15.5884C8.23804 15.5884 8.03915 15.5801 7.83197 15.5884H7.84854ZM18.8375 15.8618C18.8375 15.406 18.5392 15.0911 18.1331 15.0911C17.727 15.0911 17.4369 15.406 17.4287 15.8618C17.4287 16.5911 17.4287 17.3121 17.4287 18.0414C17.4287 18.5552 17.7104 18.837 18.2242 18.837C18.9452 18.837 19.6579 18.837 20.3789 18.837C20.8596 18.837 21.1745 18.5552 21.1745 18.1409C21.1745 17.7265 20.8596 17.4364 20.3789 17.4364C19.8734 17.4364 19.3679 17.4364 18.8292 17.4364C18.8292 16.8895 18.8292 16.3757 18.8292 15.8618H18.8375Z" fill="white"/>
</g>
<defs>
<clipPath id="clip0_75_26727">
<rect width="24" height="24" fill="white"/>
</clipPath>
</defs>
</svg>
