<svg width="177" height="76" viewBox="0 0 177 76" fill="none" xmlns="http://www.w3.org/2000/svg">
<path d="M26.6979 29.438C26.6979 27.5193 25.8997 25.9672 24.3033 24.782C22.7069 23.5967 20.7742 23.0054 18.5052 23.0079C15.2286 23.0079 12.7502 23.9343 11.07 25.787C9.38984 27.6398 8.54912 30.2635 8.54785 33.6581V37.9429C8.54785 41.3376 9.38857 43.9613 11.07 45.814C12.7515 47.6668 15.2299 48.5932 18.5052 48.5932C20.7742 48.5932 22.7069 48.0221 24.3033 46.88C25.8997 45.7379 26.6979 44.2753 26.6979 42.4924H16.8605V33.1213H39.9884V52.9484L65.8763 37.9962L38.4351 22.1494C39.4719 24.2776 39.9915 26.7071 39.9941 29.438H26.6979Z" fill="url(#paint0_linear_137_3133)"/>
<path d="M15.9223 59.6444C9.23335 59.6444 4.09383 57.9122 0.503784 54.4477V75.7501L31.4284 57.895V54.2783C27.4767 57.8569 22.308 59.6456 15.9223 59.6444Z" fill="url(#paint1_linear_137_3133)"/>
<path d="M21.0029 12.0852L0.5 0.250977V17.9709C4.59385 13.9621 10.4066 11.957 17.9382 11.9557C18.9877 11.9557 20.0092 11.9989 21.0029 12.0852Z" fill="url(#paint2_linear_137_3133)"/>
<path d="M38.4144 22.0975L21.0714 12.0869H21.0029L38.4353 22.1508C38.4294 22.1327 38.4224 22.1149 38.4144 22.0975Z" fill="white"/>
<path d="M31.4233 57.8955V57.9869L39.9948 53.0377V52.9482L31.4233 57.8955Z" fill="white"/>
<path d="M39.9943 33.1213H16.8608V42.4981H26.6925C26.6925 44.2849 25.8943 45.7474 24.2979 46.8857C22.7014 48.024 20.7687 48.5951 18.4997 48.5989C15.2231 48.5989 12.7447 47.6725 11.0646 45.8197C9.38438 43.967 8.54366 41.3433 8.54239 37.9487V33.6581C8.54239 30.2635 9.38311 27.6398 11.0646 25.7871C12.746 23.9343 15.2244 23.0079 18.4997 23.0079C20.7687 23.0079 22.7014 23.5993 24.2979 24.782C25.8943 25.9647 26.6925 27.5167 26.6925 29.438H39.9886C39.9886 26.7046 39.4689 24.275 38.4296 22.1494L21.0029 12.0855C20.0067 11.9992 18.9851 11.9561 17.9382 11.9561C10.4066 11.9561 4.59385 13.9611 0.5 17.9712V54.4579C4.09385 57.9224 9.23337 59.6546 15.9185 59.6546C22.303 59.6546 27.4704 57.8684 31.4208 54.2961V57.9128L39.9867 52.9637L39.9943 33.1213Z" fill="white"/>
<path d="M122.469 39.4347L122.428 39.4808C122.275 39.6573 122.121 39.8364 121.965 40.0078C121.499 40.5195 121.011 41.0312 120.501 41.4917C119.578 42.3488 118.076 43.8302 116.7 43.7944C115.86 43.7765 115.443 42.9578 115.29 42.029C116.95 41.0261 118.677 40.0053 120.11 38.703C120.878 38.0096 121.788 36.9453 120.852 36.0012C119.176 34.3075 116.247 35.6558 114.845 37.0246C114.209 37.6613 113.725 38.4336 113.43 39.2838C113.369 39.3233 113.314 39.3726 113.269 39.4296L113.228 39.4756C113.074 39.6522 112.921 39.8313 112.765 40.0027C112.296 40.5144 111.81 41.0261 111.301 41.4866C110.375 42.3437 108.876 43.8251 107.499 43.7893C106.66 43.7714 106.24 42.9527 106.089 42.0239C107.75 41.021 109.477 40.0001 110.91 38.6979C111.677 38.0045 112.585 36.9402 111.652 35.9961C109.973 34.3024 107.046 35.6507 105.644 37.0195C104.58 38.0729 103.963 39.4961 103.922 40.9928C103.856 41.0077 103.794 41.0388 103.743 41.0835C103.691 41.1282 103.652 41.1849 103.628 41.2487C103.091 43.3134 102.536 45.4165 101.735 47.3891C101.649 47.5853 101.549 47.7744 101.433 47.9545C101.19 47.6007 100.997 47.2149 100.86 46.8083C100.159 44.5057 100.046 41.983 99.9823 39.5882C99.9058 36.4745 100.036 33.3591 100.371 30.2625C100.681 27.3919 101.093 24.4112 102.162 21.712C102.267 21.4561 100.292 21.0928 100.062 21.6685C98.9896 24.3677 98.5777 27.3484 98.2707 30.219C98.0592 32.1839 97.9287 34.1582 97.8792 36.1419C97.4182 36.1164 96.9583 36.2098 96.5437 36.4131C95.8804 36.7684 95.2396 37.164 94.6248 37.5977C94.5181 36.9843 94.3466 36.384 94.1131 35.8068C93.2842 33.8111 90.828 34.6043 89.8072 36.0626C88.0162 38.6211 87.0747 41.6913 85.2019 44.2038C85.0061 44.4744 84.7916 44.7309 84.5597 44.9713C84.4648 45.0527 84.3648 45.1279 84.2603 45.1965C83.9917 44.9943 83.7 44.8383 83.4467 44.6106C82.4617 43.7176 81.9423 42.4486 81.7018 41.1643C81.0673 37.7845 82.0728 34.0235 83.7972 31.1042C84.5648 29.8045 85.5575 28.5099 86.8828 27.7372C88.0648 27.0439 89.1854 27.5658 90.237 28.3385C90.5466 28.5688 91.2092 28.4076 91.5444 28.3206C91.6442 28.295 92.4731 28.0443 92.2096 27.8498C90.0093 26.2175 87.0082 26.4247 84.7772 27.924C82.4259 29.5052 80.9931 32.3042 80.1898 34.942C79.3864 37.5798 78.9719 40.8547 80.2512 43.4439C81.3564 45.6902 83.851 46.9286 86.0615 45.2579C87.1335 44.4443 87.8525 43.1599 88.4998 42.0111C89.3057 40.5835 90.0118 39.1021 90.7871 37.6617C91.0957 37.069 91.4374 36.4942 91.8105 35.9398C91.836 35.9014 91.8668 35.8656 91.8949 35.8272C91.8949 35.8477 91.923 35.8656 91.9333 35.8861C92.1448 36.3225 92.2963 36.7855 92.3836 37.2625C92.5191 37.9034 92.6156 38.5519 92.6727 39.2044C90.9484 40.7966 89.4743 42.6398 88.3002 44.672C87.47 46.0607 86.8184 47.5488 86.3609 49.1007C86.082 50.0857 85.7545 51.4034 86.169 52.391C87.0312 54.4659 90.5184 52.9385 91.6186 51.8511C93.6116 49.8606 94.2436 46.5653 94.5711 43.884C94.807 42.233 94.8841 40.5631 94.8013 38.8974C95.7426 38.0579 96.772 37.3227 97.8715 36.7048C97.8511 37.9909 97.869 39.2761 97.9253 40.5605C98.0276 42.9296 98.1121 45.6774 99.1713 47.8547C99.8339 49.2235 102.096 49.9374 103.239 48.6684C103.597 48.2692 103.792 47.5989 103.976 47.1102C104.275 46.3171 104.531 45.5086 104.777 44.7027C104.843 44.4826 104.905 44.2626 104.971 44.0426C105.017 44.0989 105.061 44.1603 105.11 44.2166C106.762 46.0484 109.267 45.2886 111.04 44.0989C111.837 43.5607 112.585 42.9537 113.276 42.2849C113.453 43.0032 113.805 43.6667 114.3 44.2166C115.952 46.0484 118.455 45.2886 120.228 44.0989C121.805 43.0033 123.211 41.6798 124.401 40.1716C125.061 39.3452 123.073 38.6902 122.469 39.4347ZM106.225 39.7494C106.693 38.4702 108.295 36.6587 109.83 36.7636C109.882 36.7622 109.934 36.7727 109.981 36.7943C109.981 37.1449 109.265 37.6463 109.039 37.8408C108.137 38.5921 107.181 39.2762 106.179 39.8876C106.197 39.8338 106.225 39.7929 106.225 39.7494ZM92.2326 45.854C91.9861 47.3538 91.5288 48.8113 90.8741 50.183C90.4391 51.0401 89.733 52.2298 88.7633 52.6289L88.7403 52.611C88.5893 52.4575 88.4332 52.3858 88.3181 52.1888C88.0623 51.7795 88.0623 51.2243 88.0623 50.7612C88.1134 49.1749 88.7377 47.5938 89.408 46.1789C90.2886 44.3133 91.4065 42.5693 92.7341 40.9903C92.7128 42.6231 92.5458 44.2508 92.2352 45.854H92.2326ZM101.036 48.5839C101.056 48.5811 101.076 48.5811 101.095 48.5839C101.086 48.588 101.077 48.5902 101.067 48.5902C101.057 48.5902 101.048 48.588 101.039 48.5839H101.036ZM101.804 48.5839C101.84 48.5839 101.863 48.5993 101.863 48.6121C101.863 48.6248 101.84 48.6274 101.809 48.5916L101.804 48.5839ZM115.436 39.7494C115.904 38.4702 117.505 36.6587 119.041 36.7636C119.093 36.7631 119.146 36.7735 119.194 36.7943C119.194 37.1449 118.478 37.6463 118.25 37.8408C117.348 38.5915 116.393 39.2756 115.392 39.8876C115.392 39.8338 115.408 39.7929 115.436 39.7494Z" fill="white"/>
<path d="M174.931 39.4347L174.89 39.4808C174.736 39.6573 174.583 39.8364 174.427 40.0078C173.961 40.5195 173.472 41.0312 172.963 41.4917C172.037 42.3488 170.538 43.8302 169.161 43.7944C168.322 43.7765 167.905 42.9578 167.752 42.029C169.412 41.0261 171.139 40.0053 172.572 38.703C173.339 38.0096 174.25 36.9453 173.314 36.0012C171.638 34.3075 168.709 35.6558 167.306 37.0246C166.67 37.6613 166.187 38.4336 165.892 39.2838C165.83 39.3239 165.775 39.3731 165.728 39.4296L165.687 39.4756C165.533 39.6522 165.38 39.8313 165.221 40.0027C164.756 40.5144 164.27 41.0261 163.76 41.4866C162.834 42.3437 161.332 43.8251 159.958 43.7893C159.119 43.7714 158.7 42.9527 158.549 42.0239C160.209 41.021 161.936 40.0001 163.366 38.6979C164.134 38.0045 165.045 36.9402 164.111 35.9961C162.433 34.3024 159.506 35.6507 158.104 37.0195C157.043 38.0746 156.428 39.4972 156.387 40.9928C156.321 41.008 156.26 41.0394 156.209 41.084C156.158 41.1287 156.119 41.1853 156.095 41.2487C155.558 43.3134 155.003 45.4165 154.202 47.3891C154.116 47.5853 154.016 47.7744 153.9 47.9545C153.657 47.6007 153.464 47.2149 153.327 46.8083C152.626 44.5057 152.513 41.983 152.449 39.5882C152.372 36.4745 152.501 33.359 152.838 30.2625C153.148 27.3919 153.56 24.4112 154.629 21.712C154.734 21.4561 152.756 21.0928 152.529 21.6685C151.457 24.3677 151.045 27.3484 150.738 30.219C150.526 32.1839 150.396 34.1582 150.346 36.1419C149.885 36.1164 149.425 36.2098 149.011 36.4131C148.347 36.7684 147.707 37.164 147.092 37.5977C146.985 36.9843 146.814 36.384 146.58 35.8068C145.751 33.8111 143.292 34.6043 142.274 36.0626C140.483 38.6211 139.542 41.6913 137.669 44.2038C137.473 44.4751 137.258 44.7316 137.024 44.9713C136.931 45.0534 136.831 45.1286 136.727 45.1965C136.471 44.9943 136.167 44.8383 135.914 44.6106C134.929 43.7176 134.407 42.4486 134.169 41.1643C133.534 37.7845 134.54 34.0235 136.264 31.1042C137.032 29.8045 138.024 28.5099 139.35 27.7372C140.532 27.0439 141.652 27.5658 142.704 28.3385C143.014 28.5688 143.676 28.4076 144.011 28.3206C144.111 28.295 144.938 28.0443 144.677 27.8498C142.476 26.2175 139.475 26.4247 137.244 27.924C134.893 29.5052 133.46 32.3042 132.657 34.942C131.853 37.5798 131.439 40.8547 132.716 43.4439C133.823 45.6902 136.318 46.9286 138.526 45.2579C139.6 44.4443 140.317 43.1599 140.967 42.0111C141.773 40.5835 142.479 39.1021 143.254 37.6617C143.563 37.069 143.904 36.4941 144.277 35.9398L144.364 35.8272C144.377 35.8477 144.39 35.8656 144.4 35.8861C144.614 36.3215 144.766 36.7849 144.851 37.2625C144.989 37.903 145.085 38.5516 145.14 39.2044C143.417 40.7973 141.944 42.6405 140.77 44.672C139.94 46.0607 139.288 47.5488 138.83 49.1007C138.552 50.0857 138.224 51.4034 138.638 52.391C139.501 54.4659 142.988 52.9385 144.088 51.8511C146.081 49.8606 146.713 46.5653 147.041 43.884C147.277 42.233 147.354 40.5631 147.271 38.8974C148.212 38.0573 149.241 37.3221 150.341 36.7048C150.321 37.9909 150.338 39.2761 150.392 40.5605C150.497 42.9296 150.582 45.6774 151.638 47.8547C152.303 49.2235 154.565 49.9374 155.709 48.6684C156.067 48.2692 156.261 47.5989 156.446 47.1102C156.745 46.3171 156.998 45.5086 157.246 44.7027C157.313 44.4826 157.374 44.2626 157.438 44.0426C157.487 44.0989 157.528 44.1603 157.579 44.2166C159.232 46.0484 161.737 45.2886 163.51 44.0989C164.306 43.5594 165.054 42.9525 165.746 42.2849C165.923 43.0032 166.274 43.6667 166.769 44.2166C168.422 46.0484 170.924 45.2886 172.697 44.0989C174.274 43.0019 175.68 41.6786 176.87 40.1716C177.523 39.3452 175.535 38.6902 174.931 39.4347ZM158.689 39.7494C159.158 38.4702 160.759 36.6587 162.292 36.7636C162.345 36.7621 162.397 36.7726 162.445 36.7943C162.445 37.1449 161.729 37.6463 161.504 37.8408C160.601 38.5915 159.645 39.2756 158.643 39.8876C158.659 39.8338 158.672 39.7929 158.689 39.7494ZM144.697 45.854C144.45 47.3536 143.992 48.8109 143.338 50.183C142.904 51.0401 142.197 52.2298 141.228 52.6289L141.202 52.611C141.054 52.4575 140.898 52.3858 140.78 52.1888C140.565 51.7456 140.476 51.2516 140.524 50.7612C140.575 49.1749 141.2 47.5938 141.87 46.1789C142.749 44.3128 143.867 42.5687 145.196 40.9903C145.175 42.6231 145.008 44.2508 144.697 45.854ZM153.498 48.5839C153.519 48.5814 153.539 48.5814 153.56 48.5839C153.55 48.5885 153.54 48.5908 153.529 48.5908C153.518 48.5908 153.508 48.5885 153.498 48.5839ZM154.266 48.5839C154.302 48.5839 154.325 48.5993 154.325 48.6121C154.325 48.6248 154.302 48.6274 154.271 48.5916L154.266 48.5839ZM167.88 39.7417C168.348 38.4625 169.949 36.6511 171.485 36.756C171.537 36.7554 171.59 36.7659 171.638 36.7867C171.638 37.1372 170.919 37.6386 170.694 37.8331C169.792 38.5838 168.837 39.2679 167.836 39.8799C167.854 39.8338 167.869 39.7929 167.885 39.7494L167.88 39.7417Z" fill="white"/>
<defs>
<linearGradient id="paint0_linear_137_3133" x1="0.499753" y1="37.5489" x2="65.8896" y2="37.5489" gradientUnits="userSpaceOnUse">
<stop stop-color="#881A1C"/>
<stop offset="0.77" stop-color="#E81F3F"/>
<stop offset="1" stop-color="#E7262B"/>
</linearGradient>
<linearGradient id="paint1_linear_137_3133" x1="0.499977" y1="65.018" x2="65.8898" y2="65.018" gradientUnits="userSpaceOnUse">
<stop stop-color="#881A1C"/>
<stop offset="0.77" stop-color="#E81F3F"/>
<stop offset="1" stop-color="#E7262B"/>
</linearGradient>
<linearGradient id="paint2_linear_137_3133" x1="0.5" y1="9.10998" x2="65.8899" y2="9.10998" gradientUnits="userSpaceOnUse">
<stop stop-color="#881A1C"/>
<stop offset="0.77" stop-color="#E81F3F"/>
<stop offset="1" stop-color="#E7262B"/>
</linearGradient>
</defs>
</svg>
