<svg width="26" height="16" viewBox="0 0 26 16" fill="none" xmlns="http://www.w3.org/2000/svg">
<path d="M25.4139 0H11.4463C11.0389 0 10.6327 0.390483 10.5385 0.872275L7.81637 14.8339C7.72249 15.3157 7.97672 15.7062 8.38411 15.7062H22.3513C22.759 15.7062 23.1654 15.3157 23.2595 14.8339L25.9817 0.872275C26.0757 0.390416 25.8213 0 25.4139 0ZM17.0724 2.64314L17.2624 1.66787C17.2952 1.49955 17.4376 1.36308 17.5797 1.36308H18.7488C18.8913 1.36308 18.9802 1.49955 18.9473 1.66787L18.7572 2.64314C18.7245 2.81153 18.5823 2.94793 18.44 2.94793H17.271C17.1284 2.94786 17.0395 2.81147 17.0724 2.64314ZM11.5379 2.64314L11.7281 1.66787C11.7611 1.49955 11.903 1.36308 12.0454 1.36308H13.2147C13.357 1.36308 13.4459 1.49955 13.4131 1.66787L13.2229 2.64314C13.19 2.81153 13.0481 2.94793 12.9056 2.94793H11.7367C11.5944 2.94786 11.5053 2.81147 11.5379 2.64314ZM11.1914 13.063L11.0011 14.0383C10.9683 14.2067 10.8263 14.3431 10.6839 14.3431H9.51483C9.37218 14.3431 9.28327 14.2066 9.31617 14.0383L9.5063 13.063C9.5393 12.8946 9.68128 12.7582 9.82365 12.7582H10.993C11.1352 12.7582 11.2242 12.8946 11.1914 13.063ZM16.7256 13.063L16.5354 14.0383C16.5029 14.2067 16.3605 14.3431 16.2184 14.3431H15.0491C14.9067 14.3431 14.8179 14.2066 14.8508 14.0383L15.0408 13.063C15.0735 12.8946 15.2158 12.7582 15.3581 12.7582H16.5269C16.6697 12.7582 16.7585 12.8946 16.7256 13.063ZM22.2599 13.063L22.0699 14.0383C22.0371 14.2067 21.895 14.3431 21.7528 14.3431H20.5835C20.4411 14.3431 20.3522 14.2066 20.3851 14.0383L20.5753 13.063C20.6082 12.8946 20.7501 12.7582 20.8925 12.7582H22.0616C22.2038 12.7582 22.2928 12.8946 22.2599 13.063ZM22.1809 11.9999H9.99988L11.6172 3.70625H23.7983L22.1809 11.9999ZM24.482 1.66787L24.2916 2.64314C24.2588 2.81153 24.1168 2.94793 23.9744 2.94793H22.8051C22.6628 2.94793 22.5739 2.81153 22.6067 2.64314L22.7968 1.66787C22.8298 1.49955 22.9719 1.36308 23.1141 1.36308H24.2833C24.4256 1.36315 24.5145 1.49961 24.482 1.66787Z" fill="white"/>
<path d="M15.1774 10.2382C15.2341 10.2801 15.3014 10.3009 15.3727 10.3009C15.4531 10.3009 15.5386 10.2744 15.6188 10.2216L18.5798 8.28157C18.7226 8.18819 18.8294 8.02621 18.8633 7.85221C18.8971 7.67828 18.8535 7.51624 18.7473 7.42286L16.543 5.4828C16.4301 5.38307 16.2633 5.37679 16.1084 5.46623C15.9533 5.5556 15.8341 5.72647 15.7981 5.91222L15.0415 9.79214C15.0056 9.97796 15.0574 10.1488 15.1774 10.2382Z" fill="white"/>
<path d="M2.20277 3.81554H8.25259C8.57306 3.81554 8.83259 3.50869 8.83259 3.13036C8.83259 2.75203 8.57306 2.44531 8.25259 2.44531H2.20277C1.88275 2.44531 1.62305 2.75203 1.62305 3.13036C1.62305 3.50869 1.88275 3.81554 2.20277 3.81554Z" fill="white"/>
<path d="M6.6296 8.67871H0.579662C0.25948 8.67871 0 8.9853 0 9.36349C0 9.74189 0.25948 10.0487 0.579662 10.0487H6.6296C6.94961 10.0487 7.20938 9.74189 7.20938 9.36349C7.20938 8.9853 6.94961 8.67871 6.6296 8.67871Z" fill="white"/>
<path d="M8.01976 6.20556C8.01976 5.8273 7.76039 5.52051 7.44038 5.52051H3.82467C3.50454 5.52051 3.24512 5.8273 3.24512 6.20556C3.24512 6.58382 3.50454 6.8906 3.82467 6.8906H7.44043C7.76039 6.8906 8.01976 6.58382 8.01976 6.20556Z" fill="white"/>
<path d="M5.81842 11.7549H3.88647C3.56618 11.7549 3.30664 12.0618 3.30664 12.4401C3.30664 12.8183 3.56618 13.1252 3.88647 13.1252H5.81847C6.13882 13.1252 6.39819 12.8183 6.39819 12.4401C6.39813 12.0617 6.13877 11.7549 5.81842 11.7549Z" fill="white"/>
</svg>
