<svg width="21" height="20" viewBox="0 0 21 20" fill="none" xmlns="http://www.w3.org/2000/svg">
<path d="M10.2151 10.5451C11.2577 10.5451 12.1637 10.1856 12.896 9.47861C13.6283 8.7716 14.0006 7.89683 14.0006 6.89023C14.0006 5.88364 13.6283 5.00887 12.896 4.30186C12.1637 3.59485 11.2577 3.23535 10.2151 3.23535C9.1726 3.23535 8.27898 3.59485 7.5343 4.30186C6.80203 5.02085 6.42969 5.88364 6.42969 6.89023C6.42969 7.89683 6.80203 8.7716 7.5343 9.47861C8.27898 10.1856 9.1726 10.5451 10.2151 10.5451ZM8.53962 5.2725C8.99884 4.81714 9.55735 4.60144 10.2151 4.60144C10.873 4.60144 11.4315 4.81714 11.8907 5.2725C12.3623 5.72786 12.5857 6.25512 12.5857 6.89023C12.5857 7.52535 12.3623 8.06459 11.9031 8.51995C11.4315 8.96333 10.873 9.19101 10.2151 9.19101C9.55735 9.19101 8.99884 8.97532 8.53962 8.51995C8.0804 8.06459 7.84458 7.52535 7.84458 6.89023C7.84458 6.25512 8.06799 5.71588 8.53962 5.2725Z" fill="#E83431"/>
<path d="M16.6441 14.3083C16.6193 14.0207 16.582 13.7211 16.52 13.3856C16.4579 13.05 16.3834 12.7385 16.2841 12.4629C16.1849 12.1633 16.0483 11.8637 15.8746 11.5761C15.7008 11.2765 15.4898 11.0129 15.254 10.7972C15.0058 10.5695 14.6955 10.3778 14.3356 10.246C13.988 10.1142 13.5909 10.0423 13.1813 10.0423C12.9455 10.0423 12.7469 10.1381 12.4614 10.3179L11.8657 10.6774C11.6919 10.7852 11.4561 10.8811 11.1583 10.9769C10.5873 11.1567 10.0164 11.1567 9.44549 10.9769C9.16003 10.8811 8.92422 10.7852 8.75046 10.6774L8.15471 10.3059C7.86925 10.1261 7.67067 10.0303 7.43485 10.0303C7.02528 10.0303 6.62812 10.1022 6.2806 10.234C5.92067 10.3658 5.61039 10.5575 5.36216 10.7852C5.12634 11.0009 4.91535 11.2645 4.74159 11.5641C4.56783 11.8637 4.43131 12.1633 4.33202 12.4629C4.23273 12.7505 4.15826 13.062 4.0962 13.3856C4.03414 13.7091 3.99691 14.0207 3.97209 14.3083C3.94727 14.5839 3.94727 14.8715 3.94727 15.1591C3.94727 15.974 4.22032 16.633 4.754 17.1243C5.27528 17.6037 5.97032 17.8553 6.80188 17.8553H13.8267C14.6583 17.8553 15.3409 17.6157 15.8746 17.1243C16.4083 16.633 16.6813 15.974 16.6813 15.1591C16.6689 14.8715 16.6565 14.5839 16.6441 14.3083ZM15.254 15.1591C15.254 15.5905 15.1423 15.9021 14.8817 16.1297C14.621 16.3694 14.2735 16.4772 13.8143 16.4772H6.80188C6.34266 16.4772 5.98273 16.3574 5.7345 16.1297C5.48627 15.9021 5.36216 15.5785 5.36216 15.1591C5.36216 14.9074 5.37457 14.6438 5.38698 14.4042C5.39939 14.1645 5.43663 13.9128 5.48627 13.6372C5.53592 13.3616 5.59798 13.11 5.67244 12.8823C5.74691 12.6666 5.83379 12.4629 5.9579 12.2592C6.08202 12.0554 6.20613 11.8997 6.34266 11.7798C6.45436 11.66 6.61571 11.5761 6.80188 11.5042C6.95081 11.4443 7.12457 11.4083 7.29833 11.3964C7.32315 11.4083 7.34797 11.4323 7.38521 11.4563L7.99336 11.8278C8.26641 11.9955 8.61393 12.1513 9.02351 12.2711C9.87989 12.5348 10.7487 12.5348 11.6051 12.2711C12.0146 12.1393 12.3622 11.9955 12.6352 11.8278C12.871 11.684 13.0572 11.5641 13.2434 11.4563C13.2806 11.4323 13.3054 11.4203 13.3302 11.4083C13.5164 11.4203 13.6778 11.4563 13.8267 11.5162C14.0129 11.5881 14.1618 11.684 14.2859 11.7918C14.4224 11.9236 14.5466 12.0794 14.6583 12.2592C14.7824 12.4629 14.8693 12.6786 14.9437 12.8823C15.0182 13.11 15.0802 13.3616 15.1299 13.6372C15.1795 13.9128 15.2168 14.1765 15.2292 14.4161C15.2416 14.6438 15.254 14.8955 15.254 15.1591Z" fill="#E83431"/>
<path d="M14.6828 19.281H6.31753C3.23951 19.281 0.732422 16.8724 0.732422 13.8886V6.09948C0.732422 3.12764 3.2271 0.707031 6.31753 0.707031H14.6704C17.7484 0.707031 20.2555 3.11566 20.2555 6.09948V13.8886C20.2555 16.8724 17.7608 19.281 14.6828 19.281Z" stroke="white" stroke-width="1.1988" stroke-miterlimit="10"/>
<path d="M14.9434 19.2815V0.731445" stroke="white" stroke-width="1.1988" stroke-miterlimit="10"/>
<path d="M5.82129 19.2808V0.71875" stroke="white" stroke-width="1.1988" stroke-miterlimit="10"/>
</svg>
