<svg width="21" height="21" viewBox="0 0 21 21" fill="none" xmlns="http://www.w3.org/2000/svg">
<path d="M13.8048 6.40049C13.308 5.96831 12.7321 5.63953 12.1099 5.4329C11.4877 5.22627 10.8315 5.14585 10.1786 5.19622C9.52577 5.2466 8.88909 5.42678 8.30496 5.72649C7.72082 6.02619 7.20066 6.43956 6.77418 6.94297C6.08611 7.75591 5.67063 8.7693 5.58766 9.83698C5.5047 10.9047 5.75854 11.9715 6.31257 12.8835L5.79542 15.9963L8.84186 14.9815C9.79563 15.3353 10.8333 15.3858 11.8161 15.1262C12.7989 14.8665 13.6802 14.3091 14.342 13.5284C14.7688 13.0247 15.0935 12.4408 15.2976 11.8099C15.5016 11.179 15.5809 10.5136 15.531 9.85165C15.4811 9.18969 15.303 8.54418 15.0068 7.95202C14.7106 7.35985 14.3022 6.83263 13.8048 6.40049Z" fill="#FF0000"/>
<path d="M19.7263 10.0267C19.7344 9.86614 19.7399 9.70561 19.7399 9.54231C19.7399 4.19131 15.6046 0 10.5005 0C5.39636 0 1.261 4.19223 1.261 9.54231C1.261 9.70561 1.26646 9.86614 1.27466 10.0267C0.91684 10.0939 0.593501 10.2858 0.360693 10.5692C0.127885 10.8527 0.000283109 11.2097 3.68653e-07 11.5785V13.6192C-0.00026095 14.0044 0.138412 14.3765 0.389932 14.6653C0.641451 14.9542 0.988476 15.1399 1.36571 15.1876L2.11411 15.2799C2.134 15.4554 2.21691 15.6173 2.34703 15.7349C2.47715 15.8525 2.6454 15.9174 2.81973 15.9174H3.49165C3.68 15.9174 3.86063 15.8416 3.99382 15.7066C4.127 15.5717 4.20182 15.3886 4.20182 15.1978V9.99807C4.20182 9.80721 4.127 9.62418 3.99382 9.48923C3.86063 9.35427 3.68 9.27845 3.49165 9.27845H2.81973C2.70438 9.27827 2.59073 9.30667 2.48869 9.36118C2.38665 9.4157 2.29932 9.49467 2.23429 9.59121C2.42185 4.97828 6.04916 1.30085 10.495 1.30085C14.9408 1.30085 18.5681 4.97828 18.7557 9.59121C18.6907 9.49467 18.6033 9.4157 18.5013 9.36118C18.3993 9.30667 18.2856 9.27827 18.1703 9.27845H17.4983C17.31 9.27845 17.1293 9.35427 16.9962 9.48923C16.863 9.62418 16.7882 9.80721 16.7882 9.99807V15.1996C16.7882 15.3905 16.863 15.5735 16.9962 15.7085C17.1293 15.8434 17.31 15.9192 17.4983 15.9192H18.0091C17.9945 15.9635 17.9791 16.0115 17.9645 16.0558C17.4601 17.5965 15.7566 18.8807 13.9721 18.8807H13.0498C12.9677 18.6803 12.8287 18.5091 12.6503 18.389C12.472 18.2689 12.2624 18.2053 12.0483 18.2063H10.4895C10.3475 18.2061 10.2068 18.2342 10.0755 18.2892C9.94425 18.3441 9.82496 18.4247 9.72448 18.5265C9.62401 18.6282 9.54432 18.749 9.49 18.882C9.43567 19.015 9.40777 19.1575 9.40789 19.3014C9.40789 19.5916 9.52166 19.8699 9.72416 20.0751C9.92667 20.2803 10.2013 20.3956 10.4877 20.3956H12.0483C12.2625 20.3965 12.4722 20.3328 12.6505 20.2125C12.8289 20.0923 12.9679 19.9209 13.0498 19.7203H13.9812C15.0256 19.7164 16.0446 19.3937 16.9053 18.7944C17.7661 18.195 18.4287 17.3468 18.8067 16.3602L19.231 15.2393L19.6343 15.1885C20.0115 15.1408 20.3585 14.9551 20.6101 14.6662C20.8616 14.3774 21.0003 14.0054 21 13.6201V11.5785C20.9998 11.2098 20.8723 10.8529 20.6397 10.5695C20.407 10.2861 20.0839 10.0941 19.7263 10.0267Z" fill="white"/>
<path d="M8.56833 11.4288H6.98047L7.02781 11.1299L8.04208 10.1474C8.22963 9.96286 8.33312 9.79433 8.35255 9.64179C8.36988 9.54863 8.3506 9.45229 8.29883 9.37332C8.27314 9.33738 8.2393 9.30823 8.20016 9.28832C8.16102 9.26841 8.11773 9.25832 8.07394 9.25892C8.01665 9.2555 7.95928 9.26424 7.9055 9.28457C7.85173 9.30491 7.80273 9.33639 7.76165 9.37701C7.67328 9.46845 7.6189 9.5881 7.60778 9.7156H7.21446C7.22353 9.56995 7.27032 9.4293 7.35012 9.30782C7.42973 9.18764 7.53895 9.09064 7.66696 9.02643C7.79996 8.96053 7.94693 8.92885 8.09488 8.93417C8.27929 8.92811 8.45892 8.99418 8.59655 9.11869C8.65838 9.1807 8.70525 9.25633 8.73352 9.3397C8.76179 9.42307 8.77069 9.51193 8.75953 9.59936C8.74011 9.82939 8.60384 10.0723 8.35073 10.3282L8.24693 10.4315L7.54405 11.1013H8.62478L8.56833 11.4288Z" fill="white"/>
<path d="M10.3494 10.5519H10.6426L10.5861 10.8813H10.2938L10.2028 11.4293H9.80674L9.89779 10.8813H8.87988L8.91448 10.611L10.1992 8.96875H10.6207L10.3494 10.5519ZM9.34786 10.5519H9.95424L10.1427 9.51861L10.1026 9.57581L9.34786 10.5519Z" fill="white"/>
<path d="M10.8767 11.6443H10.5498L11.9346 8.96875H12.2633L10.8767 11.6443Z" fill="white"/>
<path d="M14.0239 9.21595L12.7492 11.4302H12.3213L13.5959 9.29806H12.3841L12.436 8.96777H14.0749L14.0239 9.21595Z" fill="white"/>
</svg>
