<svg width="129" height="123" viewBox="0 0 129 123" fill="none" xmlns="http://www.w3.org/2000/svg">
<path d="M62.7457 64.8525C69.15 64.8525 74.7156 62.6416 79.2138 58.2935C83.7121 53.9454 85.9993 48.5655 85.9993 42.375C85.9993 36.1845 83.7121 30.8046 79.2138 26.4565C74.7156 22.1084 69.15 19.8975 62.7457 19.8975C56.3415 19.8975 50.8521 22.1084 46.2777 26.4565C41.7794 30.8783 39.4922 36.1845 39.4922 42.375C39.4922 48.5655 41.7794 53.9454 46.2777 58.2935C50.8521 62.6416 56.3415 64.8525 62.7457 64.8525ZM52.4532 32.4259C55.2741 29.6254 58.705 28.2989 62.7457 28.2989C66.7865 28.2989 70.2174 29.6254 73.0383 32.4259C75.9355 35.2264 77.3078 38.4691 77.3078 42.375C77.3078 46.2809 75.9355 49.5973 73.1145 52.3978C70.2174 55.1245 66.7865 56.5248 62.7457 56.5248C58.705 56.5248 55.2741 55.1982 52.4532 52.3978C49.6323 49.5973 48.1837 46.2809 48.1837 42.375C48.1837 38.4691 49.556 35.1527 52.4532 32.4259Z" fill="#E83431"/>
<path d="M102.239 87.9934C102.086 86.2246 101.858 84.3822 101.476 82.3187C101.095 80.2552 100.638 78.3391 100.028 76.644C99.4179 74.8016 98.5792 72.9592 97.5119 71.1905C96.4445 69.3481 95.1484 67.7267 93.6998 66.4002C92.175 65 90.269 63.8208 88.058 63.0101C85.9232 62.1995 83.4835 61.7573 80.9675 61.7573C79.519 61.7573 78.2991 62.3469 76.5456 63.4523L72.886 65.6632C71.8186 66.3265 70.37 66.9161 68.5402 67.5056C65.0331 68.6111 61.5261 68.6111 58.019 67.5056C56.2654 66.9161 54.8168 66.3265 53.7495 65.6632L50.0899 63.3786C48.3363 62.2732 47.1165 61.6836 45.6679 61.6836C43.1519 61.6836 40.7122 62.1258 38.5775 62.9364C36.3665 63.7471 34.4605 64.9263 32.9356 66.3265C31.487 67.653 30.1909 69.2744 29.1236 71.1168C28.0562 72.9592 27.2175 74.8016 26.6076 76.644C25.9977 78.4128 25.5402 80.3289 25.159 82.3187C24.7778 84.3085 24.5491 86.2246 24.3966 87.9934C24.2441 89.6884 24.2441 91.4571 24.2441 93.2258C24.2441 98.2372 25.9214 102.291 29.1998 105.312C32.4019 108.26 36.6714 109.808 41.7796 109.808H84.9321C90.0402 109.808 94.2335 108.334 97.5119 105.312C100.79 102.291 102.468 98.2372 102.468 93.2258C102.391 91.4571 102.315 89.6884 102.239 87.9934ZM93.6998 93.2258C93.6998 95.8789 93.0136 97.795 91.4126 99.1953C89.8115 100.669 87.6768 101.332 84.8558 101.332H41.7796C38.9587 101.332 36.7477 100.596 35.2229 99.1953C33.698 97.795 32.9356 95.8052 32.9356 93.2258C32.9356 91.6782 33.0119 90.0569 33.0881 88.5829C33.1644 87.109 33.3931 85.5614 33.698 83.8663C34.003 82.1713 34.3842 80.6237 34.8417 79.2234C35.2991 77.8969 35.8328 76.644 36.5952 75.3912C37.3576 74.1384 38.12 73.1803 38.9587 72.4433C39.6448 71.7064 40.636 71.1905 41.7796 70.7483C42.6945 70.3798 43.7619 70.1587 44.8292 70.085C44.9817 70.1587 45.1342 70.3061 45.3629 70.4535L49.0987 72.7381C50.7761 73.7699 52.9108 74.7279 55.4268 75.4649C60.6874 77.0862 66.0243 77.0862 71.2849 75.4649C73.8009 74.6542 75.9356 73.7699 77.6129 72.7381C79.0615 71.8538 80.2051 71.1168 81.3487 70.4535C81.5775 70.3061 81.7299 70.2324 81.8824 70.1587C83.026 70.2324 84.0172 70.4535 84.9321 70.822C86.0757 71.2642 86.9906 71.8538 87.753 72.517C88.5917 73.3277 89.3541 74.2857 90.0402 75.3912C90.8027 76.644 91.3363 77.9706 91.7938 79.2234C92.2512 80.6237 92.6324 82.1713 92.9374 83.8663C93.2424 85.5614 93.4711 87.1827 93.5473 88.6566C93.6236 90.0569 93.6998 91.6045 93.6998 93.2258Z" fill="#E83431"/>
<path d="M90.1931 118.578H38.8066C19.8988 118.578 4.49805 103.765 4.49805 85.4142V37.5112C4.49805 19.2344 19.8225 4.34766 38.8066 4.34766H90.1168C109.025 4.34766 124.425 19.1607 124.425 37.5112V85.4142C124.425 103.765 109.101 118.578 90.1931 118.578Z" stroke="#6D6E6E" stroke-width="6" stroke-miterlimit="10"/>
<path d="M91.7949 118.578V4.49512" stroke="#6D6E6E" stroke-width="6" stroke-miterlimit="10"/>
<path d="M35.7578 118.577V4.4209" stroke="#6D6E6E" stroke-width="6" stroke-miterlimit="10"/>
</svg>
